<?xml version="1.0" encoding="utf-8"?>
<!-- Generator: Adobe Illustrator 26.5.0, SVG Export Plug-In . SVG Version: 6.00 Build 0)  -->
<svg version="1.1" id="Layer_1" xmlns="http://www.w3.org/2000/svg" xmlns:xlink="http://www.w3.org/1999/xlink" x="0px" y="0px"
	 viewBox="0 0 142.04 25.94" style="enable-background:new 0 0 142.04 25.94;" xml:space="preserve">
<style type="text/css">
	.st0{fill:#0D4029;}
</style>
<path class="st0" d="M25.44,13.01c0,7.05-5.67,12.72-12.72,12.72S0,20.06,0,13.01C0,5.96,5.67,0.29,12.72,0.29
	S25.44,6.03,25.44,13.01z"/>
<path class="st0" d="M50.54,6.64c-3.11,0-5.3,1.84-5.3,4.5c0,2.42,1.84,3.46,3.92,4.15c1.5,0.46,2.42,0.69,2.42,1.73
	c0,0.81-0.58,1.27-1.73,1.27c-1.38,0-2.53-0.81-3.34-1.61l-1.96,2.65c0.92,0.92,2.88,2.08,5.53,2.08c3.57,0,5.41-2.08,5.41-4.73
	s-1.73-3.69-4.03-4.38c-1.15-0.35-2.19-0.58-2.19-1.5c0-0.58,0.46-1.04,1.5-1.04c1.15,0,2.19,0.58,2.76,1.27l1.84-2.65
	C54.34,7.33,52.73,6.64,50.54,6.64z M61.02,6.87l-5.3,14.18h4.15l0.69-2.08h5.3l0.69,2.08h4.26l-5.3-14.18H61.02z M31.07,6.87v8.99
	c0,3.46,2.07,5.42,6.22,5.42c4.03,0,6.22-1.96,6.22-5.42V6.87h-4.03v7.84c0,1.5-0.12,3.11-2.19,3.11c-2.07,0-2.19-1.5-2.19-3.11
	V6.87H31.07z M63.09,10.21h0.12c0.12,0.58,0.23,1.5,0.46,2.08l1.04,3.46h-3.23l1.04-3.46C62.86,11.71,62.98,10.9,63.09,10.21z
	 M93.2,7.1c-5.3,0-7.72,3.92-7.72,7.38s2.53,7.38,7.72,7.38c5.3,0,7.72-3.92,7.72-7.38C101.03,10.9,98.5,7.1,93.2,7.1z M74.19,7.33
	v3.23h3.46v10.84h4.03V10.56h3.46V7.33H74.19z M120.15,7.33l-5.3,14.18H119l0.69-2.08h5.3l0.69,2.08h4.15l-5.3-14.18H120.15z
	 M127.18,7.33l5.3,9.11v5.07h4.26v-5.07l5.3-9.11h-4.26l-1.96,3.46c-0.35,0.69-0.92,1.84-1.04,2.65h-0.23
	c-0.11-0.69-0.69-1.84-1.04-2.65l-1.96-3.46H127.18z M102.41,7.33v14.18h5.18c4.95,0,7.83-2.77,7.83-7.03
	c0-4.38-2.88-7.03-7.83-7.03h-5.18V7.33z M93.2,10.56c1.96,0,3.57,1.27,3.57,3.8c0,2.54-1.61,3.8-3.57,3.8s-3.57-1.27-3.57-3.8
	C89.63,11.94,91.35,10.56,93.2,10.56z M106.56,10.56h0.92c2.65,0,4.03,1.27,4.03,3.8c0,2.54-1.38,3.8-4.03,3.8h-0.92V10.56z
	 M122.34,10.67h0.11c0.12,0.58,0.23,1.5,0.46,2.08l1.04,3.46h-3.23l1.04-3.46C122.11,12.17,122.23,11.36,122.34,10.67z"/>
</svg>
