<?xml version="1.0" encoding="utf-8"?>
<!-- Generator: Adobe Illustrator 26.5.0, SVG Export Plug-In . SVG Version: 6.00 Build 0)  -->
<svg version="1.1" id="Layer_1" xmlns="http://www.w3.org/2000/svg" xmlns:xlink="http://www.w3.org/1999/xlink" x="0px" y="0px"
	 viewBox="0 0 42.71 25.14" style="enable-background:new 0 0 42.71 25.14;" xml:space="preserve">
<style type="text/css">
	.st0{fill:#0D4029;}
</style>
<path class="st0" d="M0.2,0.75c2.01,0,4.02,0,6.05,0c0,0.17,0,0.31,0,0.48C6.12,1.25,5.99,1.29,5.87,1.31
	c-0.7,0.16-1.03,0.52-0.99,1.24C4.91,3.22,5.02,3.9,5.15,4.56c0.83,4.17,1.67,8.34,2.52,12.51c0.02,0.12,0.06,0.25,0.13,0.38
	c0.16-0.84,0.31-1.68,0.47-2.52c0.48-2.57,0.98-5.13,1.41-7.7C9.76,6.78,9.63,6.27,9.54,5.8C9.33,4.68,9.09,3.58,8.87,2.46
	C8.74,1.82,8.44,1.35,7.72,1.27c-0.21-0.02-0.21-0.06-0.17-0.5c2.07,0,4.15,0,6.21,0c0.12,0.34,0.01,0.52-0.35,0.54
	c-0.07,0-0.13,0.02-0.2,0.03c-0.77,0.15-1.11,0.5-1.04,1.28c0.07,0.85,0.22,1.7,0.38,2.53c0.75,3.95,1.53,7.89,2.29,11.84
	c0.02,0.14,0.06,0.28,0.14,0.43c0.09-0.44,0.18-0.87,0.27-1.31c0.74-3.68,1.5-7.36,2.23-11.04c0.17-0.88,0.37-1.76,0.25-2.67
	c-0.08-0.6-0.31-0.86-0.89-1.01c-0.14-0.03-0.28-0.07-0.42-0.09c-0.41-0.09-0.41-0.09-0.36-0.54c1.42,0,2.85,0,4.29,0
	c0.11,0.32,0.02,0.5-0.31,0.6c-0.5,0.12-0.79,0.49-0.92,0.97c-0.26,1.04-0.51,2.09-0.74,3.14c-1.1,5.35-2.23,10.72-3.35,16.07
	c-0.21,0.99-0.41,1.98-0.62,2.97c-0.29,0-0.58,0-0.87,0c-0.02-0.03-0.03-0.06-0.04-0.09c-0.76-3.69-1.52-7.37-2.29-11.06
	c-0.3-1.42-0.59-2.85-0.89-4.27c-0.17,0.6-0.28,1.19-0.4,1.79c-0.68,3.62-1.37,7.25-2.04,10.87c-0.17,0.92-0.32,1.84-0.49,2.76
	c-0.4,0-0.8,0-1.2,0c-0.01-0.11-0.01-0.22-0.03-0.32C5.11,19.18,4.06,14.18,2.99,9.17C2.54,7.02,2.06,4.88,1.6,2.73
	c-0.17-0.79-0.49-1.41-1.38-1.5c-0.01,0-0.02-0.01-0.02-0.01C0.2,1.06,0.2,0.9,0.2,0.75z"/>
<path class="st0" d="M25.98,0.61c0.69,0.17,1.27,0.52,1.85,0.95c0.68,0.51,1.2,0.32,1.49-0.47c0.04-0.1,0.07-0.21,0.11-0.32
	c0.12,0,0.24,0,0.39,0c0,2.59,0,5.17,0,7.78c-0.16,0-0.31,0-0.49,0c-0.08-0.59-0.17-1.17-0.26-1.75c-0.22-1.28-0.51-2.55-1.14-3.71
	c-0.34-0.61-0.77-1.14-1.42-1.46c-0.5-0.25-1.04-0.32-1.59-0.19c-1.01,0.24-1.32,1.04-1.47,1.94c-0.26,1.61,0.2,3.03,1.19,4.27
	c0.74,0.92,1.55,1.77,2.36,2.63c0.99,1.05,2.01,2.09,2.74,3.35c1.41,2.45,1.74,5.02,0.72,7.69c-0.67,1.74-1.92,2.85-3.81,3.15
	c-0.04,0.01-0.08,0.03-0.12,0.05c-0.36,0-0.71,0-1.07,0c-0.76-0.17-1.44-0.5-2.04-0.99c-0.89-0.73-1.48-0.34-1.8,0.55
	c-0.1,0.26-0.21,0.37-0.5,0.27c0-2.57,0-5.16,0-7.76c0.16,0,0.31,0,0.46,0c0.12,0.71,0.21,1.42,0.36,2.1
	c0.29,1.36,0.71,2.66,1.6,3.77c0.48,0.6,1.06,1.05,1.81,1.22c1.14,0.26,2.14-0.2,2.68-1.24c0.46-0.86,0.58-1.79,0.55-2.75
	c-0.06-1.9-1.02-3.39-2.23-4.75c-1.17-1.31-2.41-2.57-3.54-3.91c-1.27-1.51-1.99-3.25-1.86-5.27c0.08-1.37,0.41-2.66,1.32-3.73
	c0.63-0.74,1.44-1.18,2.38-1.35c0.1-0.02,0.19-0.05,0.28-0.07C25.26,0.61,25.62,0.61,25.98,0.61z"/>
<path class="st0" d="M35.66,24.52c-0.3-0.08-0.6-0.14-0.89-0.25c-1.65-0.62-2.43-1.89-2.64-3.57c-0.07-0.58-0.05-1.16,0.19-1.7
	c0.34-0.77,0.89-1.28,1.73-1.4c0.73-0.1,1.38,0.24,1.68,0.83c0.32,0.64,0.23,1.61-0.26,2.09c-0.34,0.33-0.74,0.59-1.13,0.89
	c-0.54,0.42-0.63,0.98-0.2,1.51c0.22,0.26,0.5,0.51,0.81,0.66c1.03,0.49,2.03,0.08,2.39-0.99c0.18-0.55,0.31-1.15,0.31-1.73
	c0.03-4.62,0.03-9.24,0.04-13.85c0-1.48,0-2.96-0.02-4.44c-0.01-0.65-0.26-0.93-0.91-1.1c-0.19-0.05-0.39-0.11-0.59-0.13
	c-0.33-0.04-0.48-0.19-0.36-0.59c2.22,0,4.46,0,6.7,0c0,0.16,0,0.31,0,0.46c-0.18,0.06-0.36,0.12-0.54,0.17
	c-0.98,0.29-1.14,0.5-1.14,1.54c0,5.3,0.01,10.58-0.02,15.88c-0.01,0.83-0.12,1.66-0.32,2.47c-0.38,1.48-1.3,2.53-2.79,3.01
	c-0.31,0.1-0.62,0.16-0.93,0.24C36.41,24.52,36.03,24.52,35.66,24.52z"/>
</svg>
